<?xml version="1.0" encoding="UTF-8" standalone="no"?>
<!DOCTYPE svg PUBLIC "-//W3C//DTD SVG 20010904//EN"
              "http://www.w3.org/TR/2001/REC-SVG-20010904/DTD/svg10.dtd">

<svg xmlns="http://www.w3.org/2000/svg"
     width="1300px" height="400px"
     style="margin-top: -150px;"
     viewBox="0 0 1300 400">
  <path id="Zaznaczenie #3"
        fill="none" stroke="black" stroke-width="1"
        d="M 177.00,203.00
           C 177.00,203.00 177.00,245.00 177.00,245.00
             177.00,245.00 178.00,262.00 178.00,262.00
             178.00,262.00 178.00,301.00 178.00,301.00
             178.00,301.00 179.00,318.00 179.00,318.00
             179.01,322.49 180.27,336.28 176.57,338.83
             174.57,340.20 170.39,340.04 168.00,339.99
             168.00,339.99 150.00,339.00 150.00,339.00
             150.00,339.00 135.00,338.00 135.00,338.00
             135.00,338.00 89.00,336.00 89.00,336.00
             85.60,335.96 70.65,335.18 68.74,333.26
             66.66,331.19 66.02,317.45 66.00,314.00
             66.00,314.00 66.00,296.00 66.00,296.00
             66.00,296.00 65.00,280.00 65.00,280.00
             65.00,280.00 64.00,219.00 64.00,219.00
             64.00,219.00 63.00,203.00 63.00,203.00
             63.00,203.00 63.00,177.00 63.00,177.00
             63.00,177.00 62.00,161.00 62.00,161.00
             62.00,161.00 62.00,135.00 62.00,135.00
             62.00,135.00 61.00,119.00 61.00,119.00
             61.00,119.00 61.00,92.00 61.00,92.00
             61.00,92.00 60.00,77.00 60.00,77.00
             59.96,73.44 59.27,64.20 61.74,61.74
             64.88,58.60 69.89,60.82 73.00,62.71
             73.00,62.71 100.00,80.00 100.00,80.00
             127.12,96.34 153.85,113.70 182.00,128.26
             189.59,132.18 206.33,141.82 214.00,143.65
             219.69,145.01 233.47,135.30 239.00,132.31
             239.00,132.31 303.00,99.70 303.00,99.70
             308.70,97.12 318.92,92.50 325.00,92.10
             328.10,91.89 331.76,92.01 333.17,95.23
             335.09,99.14 333.41,108.62 333.17,113.00
             333.17,113.00 328.28,158.00 328.28,158.00
             328.28,158.00 308.28,318.00 308.28,318.00
             308.28,318.00 303.05,359.00 303.05,359.00
             302.61,362.97 301.93,373.66 299.28,376.27
             296.52,378.96 288.71,378.99 285.00,379.00
             285.00,379.00 265.00,379.00 265.00,379.00
             256.37,378.99 234.56,377.23 230.29,368.96
             227.89,364.66 229.49,357.56 230.29,353.00
             230.29,353.00 236.25,320.00 236.25,320.00
             236.25,320.00 250.75,232.00 250.75,232.00
             252.24,222.90 257.75,195.32 257.00,188.00
             254.85,193.53 248.14,201.94 244.37,207.00
             238.38,215.05 224.74,232.36 217.99,238.96
             213.04,243.81 204.50,250.92 197.10,246.83
             193.15,244.63 190.88,238.02 189.15,234.00
             189.15,234.00 177.00,203.00 177.00,203.00 Z
           M 72.00,76.00
           C 69.89,81.32 71.93,87.31 72.00,93.00
             72.00,93.00 72.00,121.00 72.00,121.00
             72.00,121.00 73.00,137.00 73.00,137.00
             73.00,137.00 73.00,165.00 73.00,165.00
             73.00,165.00 74.00,180.00 74.00,180.00
             74.00,180.00 75.00,243.00 75.00,243.00
             75.00,243.00 76.00,260.00 76.00,260.00
             76.00,260.00 76.00,282.00 76.00,282.00
             76.00,282.00 77.00,298.00 77.00,298.00
             77.01,306.68 76.47,315.44 78.00,324.00
             78.00,324.00 168.00,329.00 168.00,329.00
             168.00,329.00 168.00,312.00 168.00,312.00
             168.00,312.00 167.00,296.00 167.00,296.00
             167.00,296.00 167.00,257.00 167.00,257.00
             167.00,257.00 166.00,240.00 166.00,240.00
             166.00,240.00 166.00,201.00 166.00,201.00
             166.00,201.00 165.00,186.00 165.00,186.00
             164.94,180.69 162.78,160.90 172.96,163.84
             178.15,165.35 180.73,177.19 182.33,182.00
             182.33,182.00 202.00,235.00 202.00,235.00
             209.29,232.86 214.23,225.62 218.92,220.00
             218.92,220.00 250.00,179.00 250.00,179.00
             253.33,174.33 261.56,159.00 267.96,160.84
             273.70,162.50 272.64,168.58 271.92,173.00
             271.92,173.00 266.08,209.00 266.08,209.00
             266.08,209.00 240.00,363.00 240.00,363.00
             253.37,369.49 276.05,368.00 291.00,368.00
             291.00,368.00 295.72,328.00 295.72,328.00
             295.72,328.00 304.72,258.00 304.72,258.00
             304.72,258.00 318.84,143.00 318.84,143.00
             318.84,143.00 323.00,104.00 323.00,104.00
             305.29,110.14 270.12,128.37 253.00,137.86
             253.00,137.86 232.00,149.43 232.00,149.43
             228.16,151.63 223.33,155.16 219.00,155.79
             213.84,156.53 208.63,154.26 204.00,152.28
             204.00,152.28 178.00,139.26 178.00,139.26
             151.27,125.43 97.34,92.90 72.00,76.00 Z
           M 737.00,210.00
           C 737.00,210.00 738.00,192.00 738.00,192.00
             738.02,178.94 737.52,165.81 734.79,153.00
             733.80,148.37 728.72,137.34 733.43,134.18
             736.37,132.21 740.20,133.95 743.00,135.26
             751.85,139.41 754.34,140.45 764.00,142.58
             783.22,146.81 800.56,146.03 820.00,146.00
             820.00,146.00 836.00,145.00 836.00,145.00
             836.00,145.00 860.00,145.00 860.00,145.00
             864.55,145.01 872.23,144.79 870.53,151.90
             869.41,156.57 862.91,156.97 859.00,157.58
             859.00,157.58 836.00,160.58 836.00,160.58
             832.82,161.00 827.90,160.99 825.18,162.43
             821.44,164.41 817.74,172.23 815.58,176.00
             815.58,176.00 802.31,202.00 802.31,202.00
             802.31,202.00 798.00,213.00 798.00,213.00
             806.88,214.03 806.99,218.31 807.00,226.00
             807.00,226.00 807.00,237.00 807.00,237.00
             807.00,237.00 806.09,249.00 806.09,249.00
             806.09,249.00 804.04,274.00 804.04,274.00
             804.04,274.00 804.04,283.00 804.04,283.00
             804.04,283.00 802.00,306.00 802.00,306.00
             802.00,306.00 802.00,315.00 802.00,315.00
             802.00,315.00 800.00,346.00 800.00,346.00
             799.94,351.00 798.50,356.03 799.21,361.00
             799.21,361.00 803.75,379.00 803.75,379.00
             805.36,388.26 807.12,398.64 807.00,408.00
             806.93,412.57 806.20,417.88 800.01,416.53
             794.51,415.32 791.67,407.33 786.01,403.48
             784.73,402.62 783.86,402.15 782.28,402.23
             780.39,402.32 778.07,404.55 774.04,403.34
             768.90,401.78 767.43,396.19 772.00,393.00
             772.00,393.00 771.00,366.00 771.00,366.00
             771.00,366.00 772.00,352.00 772.00,352.00
             772.00,352.00 772.00,320.00 772.00,320.00
             772.00,320.00 773.00,305.00 773.00,305.00
             773.00,305.00 773.00,289.00 773.00,289.00
             773.00,289.00 773.96,277.00 773.96,277.00
             773.96,277.00 773.96,261.00 773.96,261.00
             773.96,261.00 775.04,246.00 775.04,246.00
             775.04,246.00 775.04,231.00 775.04,231.00
             775.04,231.00 776.00,221.00 776.00,221.00
             776.00,221.00 739.00,214.00 739.00,214.00
             744.15,229.46 744.19,229.72 744.00,246.00
             743.84,259.40 737.26,276.13 731.24,288.00
             716.08,317.90 692.50,343.50 669.00,367.00
             656.76,379.24 643.53,390.99 630.00,401.80
             624.69,406.04 617.70,411.92 612.35,403.89
             608.38,397.94 606.00,384.27 605.00,377.00
             605.00,377.00 602.00,345.00 602.00,345.00
             602.00,345.00 601.00,327.00 601.00,327.00
             601.00,327.00 601.00,313.00 601.00,313.00
             601.00,313.00 600.00,297.00 600.00,297.00
             600.00,297.00 600.00,259.00 600.00,259.00
             600.00,259.00 601.00,245.00 601.00,245.00
             601.00,245.00 601.00,214.00 601.00,214.00
             601.00,214.00 602.00,199.00 602.00,199.00
             602.00,199.00 602.00,185.00 602.00,185.00
             602.00,185.00 602.91,175.00 602.91,175.00
             603.18,171.07 602.30,166.66 605.43,163.45
             612.31,157.04 633.11,161.76 642.00,163.45
             667.52,167.50 700.73,175.85 721.00,192.46
             728.22,198.38 731.47,202.86 737.00,210.00 Z
           M 964.00,237.00
           C 964.00,237.00 959.00,286.00 959.00,286.00
             958.96,312.38 960.09,327.90 969.81,353.00
             976.36,369.89 989.25,388.96 1009.00,390.67
             1012.98,391.02 1021.35,389.12 1025.00,387.45
             1027.58,386.27 1030.32,384.00 1033.00,383.47
             1043.82,381.30 1038.54,398.67 1037.58,404.00
             1034.97,418.43 1030.27,437.99 1023.75,451.00
             1019.87,458.74 1015.52,465.46 1006.00,465.96
             995.14,466.52 989.54,460.60 984.05,452.00
             975.15,438.05 970.18,423.54 965.00,408.00
             954.58,376.72 947.44,339.69 942.73,307.00
             942.73,307.00 936.96,249.00 936.96,249.00
             936.96,249.00 936.00,236.00 936.00,236.00
             936.00,236.00 936.00,204.00 936.00,204.00
             936.00,204.00 936.99,192.00 936.99,192.00
             937.53,176.90 942.52,147.77 956.00,139.13
             960.72,136.11 964.59,135.88 970.00,136.01
             986.11,136.41 1001.11,152.62 1010.73,164.00
             1021.28,176.48 1030.38,190.17 1039.05,204.00
             1039.05,204.00 1051.44,225.00 1051.44,225.00
             1054.89,234.29 1056.12,254.81 1056.00,265.00
             1055.95,269.13 1055.29,273.99 1054.32,278.00
             1053.65,280.81 1052.60,283.47 1051.20,286.00
             1039.88,306.49 1010.82,288.39 999.00,277.95
             989.75,269.78 983.17,262.84 975.65,253.00
             971.86,248.04 968.03,240.76 964.00,237.00 Z
           M 349.00,206.00
           C 349.00,206.00 344.96,182.00 344.96,182.00
             344.96,182.00 339.63,169.00 339.63,169.00
             337.62,161.92 339.20,153.19 345.04,148.39
             350.85,143.63 356.27,145.19 363.00,146.13
             372.80,147.51 396.87,150.72 405.00,153.81
             411.46,156.27 420.06,159.39 418.76,168.00
             417.68,175.16 407.66,179.87 402.00,183.42
             392.73,189.24 376.17,202.39 370.00,211.00
             373.74,211.17 380.64,211.73 383.26,214.65
             385.31,216.92 385.10,221.14 384.83,224.00
             384.83,224.00 382.97,244.00 382.97,244.00
             382.97,244.00 380.17,274.00 380.17,274.00
             380.17,274.00 374.17,342.00 374.17,342.00
             374.17,342.00 371.71,372.00 371.71,372.00
             371.01,377.72 370.80,381.68 364.00,381.94
             364.00,381.94 341.00,379.91 341.00,379.91
             338.45,379.72 333.58,379.14 331.74,377.27
             329.65,375.14 330.00,370.79 330.00,368.00
             330.00,368.00 331.00,331.00 331.00,331.00
             331.00,331.00 332.00,308.00 332.00,308.00
             332.00,308.00 333.00,293.00 333.00,293.00
             333.00,293.00 335.28,257.00 335.28,257.00
             335.28,257.00 339.92,219.00 339.92,219.00
             341.08,212.01 340.85,206.97 349.00,206.00 Z
           M 1041.00,232.00
           C 1038.99,225.11 1032.71,216.30 1028.81,210.00
             1020.20,196.12 1003.44,172.02 991.99,161.09
             986.50,155.85 974.22,145.29 966.00,147.66
             956.68,150.36 953.14,164.66 951.13,173.00
             946.77,191.07 946.91,214.34 947.00,233.00
             947.03,238.42 948.16,257.70 950.00,262.00
             950.00,262.00 954.58,227.00 954.58,227.00
             954.58,227.00 962.00,183.00 962.00,183.00
             963.54,175.58 967.28,159.62 978.00,162.66
             984.93,164.63 994.98,181.66 999.34,188.00
             1004.34,195.27 1013.76,206.91 1020.00,212.96
             1020.00,212.96 1029.00,221.04 1029.00,221.04
             1033.32,225.17 1036.01,228.43 1041.00,232.00 Z
           M 747.00,150.00
           C 747.00,150.00 749.00,176.00 749.00,176.00
             749.00,176.00 749.00,205.00 749.00,205.00
             749.00,205.00 780.99,211.14 780.99,211.14
             780.99,211.14 787.00,215.00 787.00,215.00
             787.41,196.76 808.28,168.78 812.00,157.00
             787.42,157.00 771.09,157.88 747.00,150.00 Z
           M 405.00,166.00
           C 405.00,166.00 395.00,162.90 395.00,162.90
             395.00,162.90 359.00,157.17 359.00,157.17
             354.78,156.84 350.59,157.94 350.44,163.00
             350.35,165.89 354.76,174.07 355.96,178.00
             355.96,178.00 360.00,201.00 360.00,201.00
             366.90,197.74 378.04,185.32 386.00,179.72
             390.92,176.26 402.17,170.50 405.00,166.00 Z
           M 487.00,168.44
           C 508.03,165.74 529.26,173.56 543.83,189.04
             552.64,198.39 557.67,207.67 563.24,219.00
             583.18,259.54 581.28,316.94 561.25,357.00
             547.00,385.49 526.07,404.38 493.00,404.00
             483.58,403.89 476.32,401.41 468.00,397.25
             446.94,386.71 434.81,368.21 426.01,347.00
             410.03,308.47 411.09,254.42 429.75,217.00
             442.36,191.71 458.06,173.78 487.00,168.44 Z
           M 620.00,394.00
           C 630.62,386.89 653.45,365.55 663.00,356.00
             683.29,335.71 709.76,305.90 722.22,280.00
             731.28,261.15 738.26,237.70 727.48,218.00
             712.94,191.43 672.82,180.60 645.00,175.58
             645.00,175.58 620.00,171.88 620.00,171.88
             612.27,171.52 614.71,174.37 613.58,183.00
             613.58,183.00 613.00,202.00 613.00,202.00
             613.00,202.00 612.00,218.00 612.00,218.00
             612.00,218.00 612.00,249.00 612.00,249.00
             612.00,249.00 611.00,265.00 611.00,265.00
             611.00,265.00 611.00,293.00 611.00,293.00
             611.00,293.00 612.00,308.00 612.00,308.00
             612.00,308.00 612.00,324.00 612.00,324.00
             612.00,324.00 613.00,338.00 613.00,338.00
             613.14,350.32 614.94,367.81 617.08,380.00
             617.08,380.00 620.00,394.00 620.00,394.00 Z
           M 977.00,176.00
           C 972.41,181.37 969.62,202.39 969.00,210.00
             972.16,210.00 975.95,209.84 979.00,210.53
             987.26,212.39 1003.59,221.92 1011.00,226.69
             1016.47,230.22 1021.93,234.68 1028.00,237.00
             1028.00,237.00 1005.29,214.00 1005.29,214.00
             1005.29,214.00 977.00,176.00 977.00,176.00 Z
           M 492.00,179.29
           C 465.87,183.61 451.03,200.07 439.76,223.00
             422.48,258.12 421.86,304.80 436.20,341.00
             445.02,363.25 461.35,386.05 486.00,391.58
             490.97,392.69 494.87,393.38 500.00,392.71
             524.28,389.56 540.76,371.98 551.25,351.00
             569.59,314.31 570.68,266.83 554.99,229.00
             544.59,203.92 522.14,176.45 492.00,179.29 Z
           M 738.00,211.00
           C 738.00,211.00 737.00,211.00 737.00,211.00
             737.00,211.00 738.00,212.00 738.00,212.00
             738.00,212.00 738.00,211.00 738.00,211.00 Z
           M 739.00,213.00
           C 739.00,213.00 738.00,213.00 738.00,213.00
             738.00,213.00 739.00,214.00 739.00,214.00
             739.00,214.00 739.00,213.00 739.00,213.00 Z
           M 353.31,219.69
           C 350.16,222.13 350.40,226.21 349.87,230.00
             349.87,230.00 346.91,257.00 346.91,257.00
             346.91,257.00 344.91,284.00 344.91,284.00
             344.91,284.00 344.00,296.00 344.00,296.00
             344.00,296.00 343.00,313.00 343.00,313.00
             343.00,313.00 342.00,346.00 342.00,346.00
             342.00,346.00 341.01,360.00 341.01,360.00
             340.79,370.01 342.53,368.27 351.00,369.28
             353.89,369.63 358.76,371.03 360.40,367.69
             360.40,367.69 362.03,352.00 362.03,352.00
             362.03,352.00 364.09,328.00 364.09,328.00
             364.09,328.00 367.83,288.00 367.83,288.00
             367.83,288.00 370.17,259.00 370.17,259.00
             370.17,259.00 372.17,236.00 372.17,236.00
             372.45,233.12 373.52,227.97 372.71,225.23
             371.48,221.09 357.18,219.21 353.31,219.69 Z
           M 788.00,219.00
           C 786.02,223.99 786.07,244.60 786.00,251.00
             786.00,251.00 785.00,264.00 785.00,264.00
             785.00,264.00 785.00,278.00 785.00,278.00
             785.00,278.00 784.00,294.00 784.00,294.00
             784.00,294.00 784.00,309.00 784.00,309.00
             784.00,309.00 783.00,325.00 783.00,325.00
             783.00,325.00 783.00,355.00 783.00,355.00
             782.98,367.51 780.64,376.85 783.00,390.00
             783.00,390.00 794.00,393.00 794.00,393.00
             793.36,379.17 788.88,369.70 788.11,365.00
             788.11,365.00 788.11,355.00 788.11,355.00
             788.11,355.00 789.00,345.00 789.00,345.00
             789.00,345.00 789.00,335.00 789.00,335.00
             789.00,335.00 790.00,321.00 790.00,321.00
             790.00,321.00 791.91,295.00 791.91,295.00
             791.91,295.00 793.09,271.00 793.09,271.00
             793.09,271.00 796.00,224.00 796.00,224.00
             791.51,223.04 790.89,222.57 788.00,219.00 Z
           M 1045.00,261.00
           C 1036.60,260.51 1029.66,253.45 1023.00,248.71
             1010.89,240.08 986.51,222.32 972.00,221.00
             973.41,228.81 977.86,235.63 982.43,242.00
             991.28,254.35 1001.80,265.46 1014.00,274.52
             1019.12,278.32 1031.41,286.34 1037.90,282.82
             1043.76,279.64 1044.87,267.06 1045.00,261.00 Z
           M 1029.00,237.00
           C 1029.00,237.00 1028.00,237.00 1028.00,237.00
             1028.00,237.00 1029.00,238.00 1029.00,238.00
             1029.00,238.00 1029.00,237.00 1029.00,237.00 Z
           M 1030.00,238.00
           C 1030.00,238.00 1029.00,238.00 1029.00,238.00
             1029.00,238.00 1030.00,239.00 1030.00,239.00
             1030.00,239.00 1030.00,238.00 1030.00,238.00 Z
           M 1031.00,239.00
           C 1031.00,239.00 1030.00,239.00 1030.00,239.00
             1030.00,239.00 1031.00,240.00 1031.00,240.00
             1031.00,240.00 1031.00,239.00 1031.00,239.00 Z
           M 1121.00,250.47
           C 1146.96,246.84 1159.07,263.66 1168.69,285.00
             1173.93,296.63 1177.94,318.21 1178.00,331.00
             1178.10,352.30 1176.82,374.52 1167.24,394.00
             1160.37,407.98 1151.73,422.38 1135.00,425.53
             1109.47,430.35 1094.13,409.09 1086.06,388.00
             1074.77,358.48 1074.72,310.57 1088.76,282.00
             1096.12,267.02 1103.50,254.63 1121.00,250.47 Z
           M 1241.00,317.00
           C 1252.73,305.27 1260.63,297.27 1269.58,283.00
             1273.19,277.23 1281.53,261.99 1287.01,259.17
             1302.13,251.42 1306.21,278.66 1308.35,288.00
             1313.05,308.48 1320.76,353.77 1320.80,374.00
             1320.80,374.00 1320.80,402.98 1320.80,402.98
             1318.74,410.86 1312.28,409.48 1307.00,406.00
             1306.98,411.06 1306.23,422.70 1303.00,426.57
             1301.87,427.92 1300.67,428.49 1298.96,428.76
             1291.05,430.02 1287.12,421.35 1285.51,415.00
             1283.68,407.79 1284.37,404.67 1283.91,398.00
             1283.91,398.00 1283.00,384.00 1283.00,384.00
             1283.00,384.00 1283.91,374.00 1283.91,374.00
             1285.31,353.61 1287.31,345.49 1293.00,326.00
             1289.12,327.67 1284.30,329.80 1281.00,332.39
             1281.00,332.39 1269.00,343.91 1269.00,343.91
             1260.90,351.45 1243.65,363.98 1232.00,362.80
             1228.85,362.48 1226.75,361.40 1224.00,360.00
             1224.00,360.00 1227.68,380.00 1227.68,380.00
             1227.68,380.00 1228.99,395.00 1228.99,395.00
             1228.99,395.00 1227.17,414.00 1227.17,414.00
             1227.17,414.00 1223.75,445.00 1223.75,445.00
             1222.99,449.39 1222.48,456.02 1216.96,456.73
             1215.45,456.93 1213.69,456.66 1212.39,455.82
             1208.80,453.52 1208.28,446.86 1207.73,443.00
             1207.73,443.00 1204.96,418.00 1204.96,418.00
             1204.96,418.00 1204.96,409.00 1204.96,409.00
             1204.96,409.00 1199.83,343.00 1199.83,343.00
             1199.83,343.00 1195.91,303.00 1195.91,303.00
             1195.91,303.00 1195.17,293.00 1195.17,293.00
             1195.17,293.00 1195.17,283.00 1195.17,283.00
             1197.45,271.22 1208.90,273.10 1218.00,273.00
             1228.63,272.87 1239.29,268.99 1249.00,264.99
             1253.29,263.22 1260.12,259.60 1264.88,261.74
             1270.56,264.40 1267.22,273.09 1264.88,277.00
             1264.88,277.00 1241.00,317.00 1241.00,317.00 Z
           M 1126.00,261.31
           C 1111.59,264.04 1103.92,276.55 1098.31,289.00
             1086.41,315.40 1086.70,352.78 1095.67,380.00
             1100.22,393.82 1112.60,416.83 1130.00,414.69
             1143.48,413.03 1151.98,399.18 1157.22,388.00
             1169.89,360.98 1169.39,321.86 1159.66,294.00
             1154.66,279.71 1143.37,260.32 1126.00,261.31 Z
           M 1292.00,272.00
           C 1285.99,277.09 1280.66,288.14 1275.97,295.00
             1267.31,307.68 1261.69,313.31 1251.00,324.00
             1244.31,330.68 1237.90,337.95 1228.00,339.00
             1228.24,341.83 1228.83,347.31 1230.85,349.40
             1235.25,353.95 1246.18,346.29 1250.00,343.65
             1259.42,337.15 1264.03,330.96 1272.00,324.21
             1277.22,319.78 1294.21,311.06 1301.00,310.00
             1301.00,310.00 1292.00,272.00 1292.00,272.00 Z
           M 1251.00,277.00
           C 1251.00,277.00 1250.00,277.00 1250.00,277.00
             1250.00,277.00 1251.00,278.00 1251.00,278.00
             1251.00,278.00 1251.00,277.00 1251.00,277.00 Z
           M 1250.00,278.00
           C 1234.08,281.63 1233.99,283.91 1216.00,284.00
             1213.10,284.02 1208.88,283.72 1206.97,286.43
             1205.05,289.30 1206.67,295.64 1206.97,299.00
             1206.97,299.00 1208.92,320.00 1208.92,320.00
             1209.22,323.86 1209.72,332.77 1211.00,336.00
             1211.00,331.04 1209.71,316.21 1218.96,318.84
             1221.24,319.49 1222.55,321.30 1224.00,323.00
             1224.00,323.00 1235.28,303.00 1235.28,303.00
             1235.28,303.00 1250.00,278.00 1250.00,278.00 Z
           M 887.21,308.75
           C 899.85,306.19 895.85,324.26 896.10,330.00
             896.10,330.00 897.00,340.00 897.00,340.00
             897.35,370.66 896.71,393.65 885.95,423.00
             885.95,423.00 873.03,453.77 873.03,453.77
             869.80,457.88 862.16,459.51 862.00,448.00
             862.00,448.00 862.00,433.00 862.00,433.00
             862.00,433.00 861.09,423.00 861.09,423.00
             860.17,409.84 858.30,397.77 854.85,385.00
             854.85,385.00 846.27,355.00 846.27,355.00
             844.53,343.75 843.74,330.12 852.21,321.10
             861.71,310.99 876.86,313.74 880.90,312.69
             883.25,312.08 885.09,310.02 887.21,308.75 Z
           M 1241.00,317.00
           C 1241.00,317.00 1240.00,317.00 1240.00,317.00
             1240.00,317.00 1241.00,318.00 1241.00,318.00
             1241.00,318.00 1241.00,317.00 1241.00,317.00 Z
           M 872.00,422.00
           C 876.67,418.85 878.51,408.40 879.99,403.00
             885.18,384.08 886.22,364.50 886.00,345.00
             885.96,341.66 885.21,327.68 883.26,325.74
             881.36,323.84 877.50,323.92 875.00,324.09
             867.97,324.57 860.98,327.00 858.14,334.00
             853.03,346.63 860.91,363.69 864.42,376.00
             868.80,391.35 872.00,405.96 872.00,422.00 Z
           M 1294.00,325.00
           C 1294.00,325.00 1293.00,325.00 1293.00,325.00
             1293.00,325.00 1294.00,326.00 1294.00,326.00
             1294.00,326.00 1294.00,325.00 1294.00,325.00 Z
           M 1305.00,331.00
           C 1301.58,335.25 1299.89,343.61 1298.65,349.00
             1295.51,362.70 1293.50,379.07 1294.83,393.00
             1295.24,397.28 1294.39,400.94 1296.00,405.00
             1297.57,396.37 1298.26,386.45 1310.00,389.00
             1310.00,389.00 1307.84,354.00 1307.84,354.00
             1307.84,354.00 1305.00,331.00 1305.00,331.00 Z
           M 1228.00,338.00
           C 1228.00,338.00 1227.00,338.00 1227.00,338.00
             1227.00,338.00 1228.00,339.00 1228.00,339.00
             1228.00,339.00 1228.00,338.00 1228.00,338.00 Z
           M 1214.96,375.00
           C 1212.92,380.23 1214.54,385.62 1214.96,391.00
             1215.31,396.80 1214.45,401.46 1217.00,407.00
             1217.00,407.00 1217.66,397.00 1217.66,397.00
             1217.66,397.00 1216.91,386.00 1216.91,386.00
             1216.91,386.00 1214.96,375.00 1214.96,375.00 Z
           M 969.00,377.00
           C 969.00,377.00 968.00,377.00 968.00,377.00
             968.00,377.00 969.00,378.00 969.00,378.00
             969.00,378.00 969.00,377.00 969.00,377.00 Z
           M 970.00,379.00
           C 968.80,383.41 972.10,391.46 973.42,396.00
             976.93,408.00 984.43,429.56 990.60,440.00
             993.13,444.26 998.61,453.93 1003.99,454.29
             1008.99,454.64 1012.95,446.82 1014.69,443.00
             1018.90,433.75 1025.54,410.01 1026.00,400.00
             1026.00,400.00 1012.00,401.99 1012.00,401.99
             992.52,402.43 981.81,393.38 970.00,379.00 Z" />
</svg>
